<mxfile host="65bd71144e">
    <diagram id="g-B6R4z7g1c9R3mFVaZc" name="Seite-1">
        <mxGraphModel dx="1230" dy="672" grid="0" gridSize="10" guides="1" tooltips="1" connect="1" arrows="1" fold="1" page="1" pageScale="1" pageWidth="827" pageHeight="1169" background="#ffffff" math="0" shadow="0">
            <root>
                <mxCell id="0"/>
                <mxCell id="1" parent="0"/>
                <mxCell id="19" value="" style="edgeStyle=none;html=1;strokeWidth=5;strokeColor=#000000;fontFamily=Helvetica;sketch=1;curveFitting=1;jiggle=2;endArrow=block;endFill=0;" parent="1" source="20" target="25" edge="1">
                    <mxGeometry relative="1" as="geometry"/>
                </mxCell>
                <mxCell id="20" value="&lt;span style=&quot;color: rgb(0 , 0 , 0) ; font-size: 16px&quot;&gt;Theory&lt;/span&gt;" style="rounded=0;whiteSpace=wrap;html=1;fillColor=#FFFFFF;strokeColor=#000000;strokeWidth=3;fontFamily=Helvetica;fontStyle=1;sketch=1;curveFitting=1;jiggle=2;" parent="1" vertex="1">
                    <mxGeometry x="40" y="450" width="120" height="60" as="geometry"/>
                </mxCell>
                <mxCell id="21" value="" style="edgeStyle=none;html=1;strokeColor=#000000;strokeWidth=5;startArrow=block;startFill=0;endArrow=none;endFill=0;fontFamily=Helvetica;sketch=1;curveFitting=1;jiggle=2;" parent="1" source="25" target="26" edge="1">
                    <mxGeometry relative="1" as="geometry"/>
                </mxCell>
                <mxCell id="22" style="edgeStyle=orthogonalEdgeStyle;html=1;exitX=0.5;exitY=1;exitDx=0;exitDy=0;entryX=0.5;entryY=0;entryDx=0;entryDy=0;fontSize=16;fontColor=#000000;startArrow=none;startFill=0;endArrow=block;endFill=1;strokeColor=#000000;strokeWidth=5;fontFamily=Helvetica;sketch=1;curveFitting=1;jiggle=2;" parent="1" source="25" target="27" edge="1">
                    <mxGeometry relative="1" as="geometry"/>
                </mxCell>
                <mxCell id="23" style="edgeStyle=orthogonalEdgeStyle;html=1;exitX=0.5;exitY=1;exitDx=0;exitDy=0;entryX=0.5;entryY=0;entryDx=0;entryDy=0;fontSize=16;fontColor=#000000;startArrow=none;startFill=0;endArrow=block;endFill=1;strokeColor=#000000;strokeWidth=5;fontFamily=Helvetica;sketch=1;curveFitting=1;jiggle=2;" parent="1" source="25" target="28" edge="1">
                    <mxGeometry relative="1" as="geometry"/>
                </mxCell>
                <mxCell id="24" style="edgeStyle=orthogonalEdgeStyle;html=1;exitX=0.5;exitY=1;exitDx=0;exitDy=0;entryX=0.5;entryY=0;entryDx=0;entryDy=0;fontSize=16;fontColor=#000000;startArrow=none;startFill=0;endArrow=block;endFill=1;strokeColor=#000000;strokeWidth=5;fontFamily=Helvetica;sketch=1;curveFitting=1;jiggle=2;" parent="1" source="25" target="29" edge="1">
                    <mxGeometry relative="1" as="geometry"/>
                </mxCell>
                <mxCell id="25" value="&lt;font color=&quot;#000000&quot; size=&quot;1&quot;&gt;&lt;span style=&quot;font-size: 16px&quot;&gt;The Gap&lt;/span&gt;&lt;/font&gt;" style="rounded=0;whiteSpace=wrap;html=1;fillColor=#FFFFFF;strokeColor=#000000;strokeWidth=3;fontFamily=Helvetica;fontStyle=1;sketch=1;curveFitting=1;jiggle=2;" parent="1" vertex="1">
                    <mxGeometry x="353" y="450" width="120" height="60" as="geometry"/>
                </mxCell>
                <mxCell id="26" value="&lt;span style=&quot;color: rgb(0 , 0 , 0) ; font-size: 16px&quot;&gt;Practice&lt;/span&gt;" style="rounded=0;whiteSpace=wrap;html=1;fillColor=#FFFFFF;strokeColor=#000000;strokeWidth=3;fontFamily=Helvetica;fontStyle=1;sketch=1;curveFitting=1;jiggle=2;" parent="1" vertex="1">
                    <mxGeometry x="680" y="450" width="120" height="60" as="geometry"/>
                </mxCell>
                <mxCell id="27" value="&lt;font style=&quot;&quot; color=&quot;#000000&quot;&gt;&lt;b style=&quot;&quot;&gt;&lt;font style=&quot;font-size: 16px;&quot;&gt;Language&lt;/font&gt;&lt;/b&gt;&lt;br&gt;&lt;ul style=&quot;font-size: 14px;&quot;&gt;&lt;li&gt;&lt;div style=&quot;line-height: 19px;&quot;&gt;Deviations in the &lt;b&gt;roles&lt;/b&gt; of Scrum due to the jargon and misconceptions caused by the &lt;b&gt;abstractness &lt;/b&gt;of Scrum&lt;/div&gt;&lt;/li&gt;&lt;li&gt;&lt;div style=&quot;line-height: 19px;&quot;&gt;Misunderstandings about the functions of Scrum &lt;b&gt;methods&lt;/b&gt; and their &lt;b&gt;effectiveness&lt;/b&gt;&lt;/div&gt;&lt;/li&gt;&lt;li&gt;&lt;div style=&quot;line-height: 19px&quot;&gt;&lt;div style=&quot;line-height: 19px;&quot;&gt;Communication of &lt;b&gt;risk management&lt;/b&gt; in Scrum&lt;/div&gt;&lt;/div&gt;&lt;/li&gt;&lt;li&gt;&lt;div style=&quot;line-height: 19px;&quot;&gt;Misunderstanding the &lt;b&gt;Sprint methodology&lt;/b&gt;&lt;/div&gt;&lt;/li&gt;&lt;/ul&gt;&lt;/font&gt;" style="rounded=0;whiteSpace=wrap;html=1;fillColor=#FFFFFF;strokeColor=#000000;align=left;verticalAlign=top;spacing=8;strokeWidth=3;fontFamily=Helvetica;sketch=1;curveFitting=1;jiggle=2;" parent="1" vertex="1">
                    <mxGeometry x="40" y="584" width="240" height="382" as="geometry"/>
                </mxCell>
                <mxCell id="28" value="&lt;font style=&quot;font-size: 13px;&quot; color=&quot;#000000&quot;&gt;&lt;b style=&quot;font-size: 16px&quot;&gt;Methodology&lt;/b&gt;&lt;br&gt;&lt;ul&gt;&lt;li style=&quot;&quot;&gt;&lt;span style=&quot;color: rgb(0, 0, 0);&quot;&gt;Transforming or merging &lt;b&gt;existing methodology&lt;/b&gt; with Scrums&lt;/span&gt;&lt;/li&gt;&lt;li style=&quot;&quot;&gt;&lt;span style=&quot;color: rgb(0, 0, 0);&quot;&gt;&lt;b&gt;Selling&lt;/b&gt; the methodology to &lt;b&gt;clients&lt;/b&gt; and &lt;b&gt;consulting&lt;/b&gt; them&lt;/span&gt;&lt;/li&gt;&lt;li style=&quot;&quot;&gt;&lt;span style=&quot;color: rgb(0, 0, 0);&quot;&gt;Transforming and merging &lt;b&gt;exisiting roles&lt;/b&gt; and staff into the Scrum Team&lt;/span&gt;&lt;/li&gt;&lt;li style=&quot;&quot;&gt;&lt;span style=&quot;color: rgb(0, 0, 0);&quot;&gt;&lt;b&gt;Budgeting training&lt;/b&gt; and additional meetings&lt;/span&gt;&lt;/li&gt;&lt;li style=&quot;&quot;&gt;&lt;span style=&quot;color: rgb(0, 0, 0);&quot;&gt;&lt;b&gt;Strategic transformation&lt;/b&gt; led by an expert&lt;/span&gt;&lt;/li&gt;&lt;li style=&quot;&quot;&gt;&lt;span style=&quot;color: rgb(0, 0, 0);&quot;&gt;Transforming and merging &lt;b&gt;control structures&lt;/b&gt; and &lt;b&gt;leaders&lt;/b&gt;&lt;/span&gt;&lt;/li&gt;&lt;li style=&quot;&quot;&gt;&lt;span style=&quot;&quot;&gt;&lt;b&gt;Scaling &lt;/b&gt;Scrums methodology to &lt;b&gt;larger organizations&lt;/b&gt;&lt;/span&gt;&lt;/li&gt;&lt;li style=&quot;&quot;&gt;Embracing &lt;b&gt;self-organization&lt;/b&gt; or &lt;b&gt;self-management&lt;/b&gt;&lt;/li&gt;&lt;/ul&gt;&lt;/font&gt;" style="rounded=0;whiteSpace=wrap;html=1;fillColor=#FFFFFF;strokeColor=#000000;align=left;verticalAlign=top;spacing=8;strokeWidth=3;fontFamily=Helvetica;sketch=1;curveFitting=1;jiggle=2;" parent="1" vertex="1">
                    <mxGeometry x="289" y="584" width="248.5" height="382" as="geometry"/>
                </mxCell>
                <mxCell id="29" value="&lt;b style=&quot;font-size: 16px; color: rgb(0, 0, 0);&quot;&gt;Evolution&lt;/b&gt;&lt;br&gt;&lt;ul style=&quot;&quot;&gt;&lt;li style=&quot;font-size: 16px; color: rgb(0, 0, 0);&quot;&gt;&lt;span style=&quot;font-size: 14px; color: rgb(0, 0, 0);&quot;&gt;&lt;b&gt;Scaling &lt;/b&gt;Scrum to larger teams with the right amount of &lt;b&gt;command-and-control&lt;/b&gt;&lt;/span&gt;&lt;/li&gt;&lt;li style=&quot;font-size: 16px; color: rgb(0, 0, 0);&quot;&gt;&lt;span style=&quot;font-size: 14px; color: rgb(0, 0, 0);&quot;&gt;Choosing a &lt;b&gt;newer framework&lt;/b&gt; that improves upon Scrums methodology&lt;/span&gt;&lt;/li&gt;&lt;li style=&quot;font-size: 16px; color: rgb(0, 0, 0);&quot;&gt;&lt;span style=&quot;font-size: 14px; color: rgb(0, 0, 0);&quot;&gt;&lt;b&gt;Moving away&lt;/b&gt; from Scrum to be even &lt;b&gt;more agile&lt;/b&gt;&lt;/span&gt;&lt;/li&gt;&lt;li style=&quot;color: rgb(0, 0, 0);&quot;&gt;&lt;span style=&quot;font-size: 14px;&quot;&gt;Variations in &lt;b&gt;Scrum Views &lt;/b&gt;and their &lt;b&gt;Impact&amp;nbsp;&lt;/b&gt;&lt;/span&gt;&lt;/li&gt;&lt;/ul&gt;" style="rounded=0;whiteSpace=wrap;html=1;fillColor=#FFFFFF;strokeColor=#000000;align=left;verticalAlign=top;spacing=8;strokeWidth=3;fontFamily=Helvetica;sketch=1;curveFitting=1;jiggle=2;" parent="1" vertex="1">
                    <mxGeometry x="550" y="584" width="250" height="382" as="geometry"/>
                </mxCell>
                <mxCell id="30" value="" style="fontColor=#0066CC;verticalAlign=top;verticalLabelPosition=bottom;labelPosition=center;align=center;html=1;outlineConnect=0;fillColor=#000000;strokeColor=#000000;gradientColor=none;gradientDirection=north;strokeWidth=1;shape=mxgraph.networks.users;fontSize=16;fontFamily=Helvetica;" parent="1" vertex="1">
                    <mxGeometry x="493" y="590" width="24" height="24" as="geometry"/>
                </mxCell>
                <mxCell id="31" value="" style="verticalLabelPosition=bottom;html=1;verticalAlign=top;strokeWidth=5;shape=mxgraph.lean_mapping.physical_pull;pointerEvents=1;strokeColor=#000000;fillColor=#000000;fontFamily=Helvetica;" parent="1" vertex="1">
                    <mxGeometry x="757" y="591" width="24" height="24" as="geometry"/>
                </mxCell>
                <mxCell id="32" value="" style="shape=callout;whiteSpace=wrap;html=1;perimeter=calloutPerimeter;strokeColor=#000000;strokeWidth=1;size=9;position=0.44;base=10;fillColor=#000000;fontFamily=Helvetica;" parent="1" vertex="1">
                    <mxGeometry x="234" y="593" width="24" height="24" as="geometry"/>
                </mxCell>
            </root>
        </mxGraphModel>
    </diagram>
</mxfile>